<?xml version="1.0" standalone="no"?>
<!DOCTYPE svg PUBLIC "-//W3C//DTD SVG 20010904//EN"
 "http://www.w3.org/TR/2001/REC-SVG-20010904/DTD/svg10.dtd">
<svg version="1.0" xmlns="http://www.w3.org/2000/svg"
 width="1280.000000pt" height="1280.000000pt" viewBox="0 0 1280.000000 1280.000000"
 preserveAspectRatio="xMidYMid meet">

<g transform="translate(0.000000,1280.000000) scale(0.100000,-0.100000)"
fill="#000000" stroke="none">
<path d="M6180 10914 c-96 -21 -163 -57 -385 -202 -110 -72 -272 -178 -360
-235 -88 -58 -232 -151 -319 -208 -88 -57 -229 -149 -313 -204 -84 -55 -208
-136 -275 -180 -68 -43 -213 -138 -323 -210 -110 -72 -292 -190 -405 -264
-113 -73 -266 -172 -340 -221 -74 -49 -193 -126 -264 -172 -71 -46 -157 -109
-192 -141 -114 -106 -183 -242 -205 -404 -6 -52 -9 -746 -7 -2073 3 -1885 4
-1998 21 -2055 32 -108 83 -198 154 -275 73 -79 65 -74 743 -515 184 -120 391
-255 460 -300 69 -45 312 -203 540 -352 228 -148 532 -346 675 -440 492 -321
600 -390 652 -416 176 -90 415 -89 589 2 33 17 165 100 294 185 129 85 271
178 315 206 44 28 202 131 350 228 149 97 352 230 450 294 99 64 282 183 407
265 125 81 283 184 350 228 610 396 829 542 862 573 90 86 156 198 187 320 18
73 19 130 19 2101 0 1718 -3 2036 -15 2093 -28 134 -119 283 -222 362 -32 25
-161 112 -288 195 -126 82 -432 282 -679 443 -248 161 -505 329 -573 373 -108
70 -632 411 -1196 779 -240 157 -262 170 -349 201 -92 34 -256 43 -358 19z
m304 -30 c112 -27 71 -2 1019 -621 127 -83 288 -188 357 -233 69 -45 216 -141
327 -213 112 -73 365 -238 563 -367 199 -129 405 -263 458 -298 445 -289 490
-327 561 -475 71 -149 66 18 66 -2222 0 -1904 -1 -2034 -18 -2095 -27 -103
-89 -218 -152 -283 -58 -61 -143 -118 -970 -656 -121 -78 -281 -182 -355 -231
-74 -49 -279 -182 -455 -296 -176 -115 -396 -258 -490 -320 -548 -359 -734
-478 -785 -504 -93 -47 -165 -64 -275 -64 -167 -1 -245 27 -442 157 -71 46
-180 117 -243 158 -162 105 -765 497 -955 622 -346 226 -980 639 -1375 895
-182 119 -274 185 -320 231 -67 68 -121 159 -156 261 -18 53 -19 128 -19 2120
l0 2065 22 70 c12 39 39 99 60 135 64 109 137 171 414 350 140 91 331 215 424
276 158 103 669 435 900 586 55 36 264 172 465 303 201 131 403 263 450 293
47 31 157 103 245 160 186 122 282 176 345 193 112 30 220 31 334 3z"/>
<path d="M6164 10701 c-115 -31 -108 -27 -654 -386 -224 -147 -456 -299 -630
-413 -124 -81 -316 -207 -1140 -748 -69 -46 -213 -140 -320 -210 -118 -78
-219 -152 -255 -189 -69 -69 -126 -161 -158 -255 l-22 -65 -3 -1955 c-3 -2193
-9 -2019 71 -2175 75 -145 117 -179 707 -565 289 -189 689 -452 890 -584 201
-131 415 -271 475 -311 137 -89 399 -262 655 -430 217 -143 296 -187 385 -210
81 -22 232 -22 320 0 118 30 84 9 1022 624 122 80 383 252 580 381 409 268
784 515 1122 737 141 93 255 176 287 209 64 66 116 152 152 253 l27 76 3 1937
c3 2161 7 2008 -68 2164 -60 123 -139 203 -325 325 -82 54 -157 103 -165 109
-8 6 -113 75 -233 153 -438 286 -922 604 -1649 1082 -642 422 -612 404 -712
437 -90 30 -267 34 -362 9z m352 -794 c87 -26 158 -68 584 -350 228 -151 548
-363 710 -470 1083 -717 1035 -683 1113 -779 49 -60 95 -157 118 -246 18 -73
19 -126 19 -1611 0 -1651 2 -1587 -51 -1706 -34 -78 -86 -153 -143 -209 -48
-48 -147 -115 -896 -610 -157 -103 -499 -330 -760 -503 -564 -373 -582 -384
-685 -419 -64 -22 -100 -27 -180 -28 -126 -1 -206 16 -309 69 -44 22 -318 198
-608 390 -290 193 -763 505 -1050 695 -288 190 -547 368 -577 395 -65 61 -125
147 -158 229 -53 129 -52 97 -52 1701 0 1678 -4 1585 74 1742 62 125 139 202
325 325 231 152 747 493 1100 726 529 350 873 576 911 600 135 82 353 107 515
59z"/>
<path d="M6174 9890 c-40 -10 -95 -30 -123 -45 -29 -14 -253 -159 -499 -321
-680 -450 -1036 -685 -1381 -914 -181 -119 -337 -230 -368 -261 -63 -62 -122
-156 -155 -249 l-23 -65 -3 -1550 c-3 -1721 -6 -1624 63 -1763 19 -37 57 -96
86 -130 55 -68 -10 -24 1534 -1045 815 -539 760 -506 885 -533 138 -29 280
-14 405 45 33 15 233 143 445 283 212 140 464 306 560 370 1300 856 1290 849
1365 1000 75 153 69 10 72 1702 4 1704 7 1619 -67 1772 -62 128 -129 190 -400
369 -124 82 -364 241 -535 353 -887 586 -1357 896 -1395 919 -125 76 -317 102
-466 63z m264 -1067 c54 -38 209 -144 344 -238 l247 -170 0 -873 c1 -696 -2
-872 -11 -866 -7 4 -53 37 -103 74 -216 161 -561 413 -572 417 -11 4 -40 -16
-456 -322 -131 -96 -240 -175 -243 -175 -2 0 -4 395 -4 878 l0 877 336 225
c185 124 338 228 340 233 10 14 25 6 122 -60z m-1308 -1519 l0 -964 1230 0
1230 0 2 969 3 969 253 -141 252 -142 0 -1531 c0 -1213 -3 -1534 -12 -1542
-22 -17 -495 -292 -503 -292 -3 0 -5 290 -5 645 l0 645 -1230 0 -1230 0 0
-646 c0 -527 -2 -645 -13 -641 -7 3 -123 68 -258 145 l-244 141 -2 1533 -3
1533 88 50 c48 27 164 93 257 146 94 53 173 95 178 92 4 -2 7 -438 7 -969z
m692 -1855 c87 -66 166 -123 173 -126 8 -3 90 34 182 83 l168 87 170 -86 c93
-48 175 -87 180 -87 10 0 33 16 223 163 62 48 114 87 117 87 3 0 5 -258 5
-573 l0 -574 -247 -189 c-135 -104 -289 -222 -341 -261 -52 -40 -99 -70 -106
-66 -6 4 -46 30 -88 60 -114 78 -211 144 -420 288 l-188 128 0 594 c0 326 3
593 6 593 3 0 78 -54 166 -121z"/>
<path d="M6023 8587 l-302 -202 -1 -782 0 -783 153 112 c83 61 221 163 305
225 84 62 155 113 158 113 5 0 230 -164 511 -372 51 -37 97 -68 102 -68 12 0
15 1518 3 1536 -4 6 -29 25 -57 44 -27 18 -129 88 -225 155 -284 198 -324 225
-335 225 -5 0 -146 -91 -312 -203z"/>
<path d="M5730 4917 l0 -494 218 -149 c119 -82 251 -173 292 -202 41 -29 84
-57 96 -63 19 -10 55 16 325 223 l304 234 3 473 c2 421 0 473 -13 467 -8 -3
-69 -47 -135 -97 l-120 -92 0 -157 c0 -110 -4 -161 -12 -172 -17 -21 -319
-178 -343 -178 -24 0 -326 157 -342 178 -9 11 -13 63 -13 177 l0 161 -124 92
c-68 51 -126 92 -130 92 -3 0 -6 -222 -6 -493z"/>
<path d="M6210 5307 l-115 -62 -3 -147 -3 -146 128 -67 128 -67 125 65 125 65
3 149 2 148 -122 63 c-68 35 -130 62 -138 61 -8 0 -67 -29 -130 -62z"/>
</g>
</svg>
